<?xml version="1.0" ?>
<!-- Uploaded to: SVG Repo, www.svgrepo.com, Generator: SVG Repo Mixer Tools -->
<svg width="800px" height="800px" viewBox="0 0 64 64" xmlns="http://www.w3.org/2000/svg">
<defs>
<style>.cls-1{fill:#87868a;}.cls-2{fill:#eaeaea;}.cls-3{fill:#646467;}.cls-4{fill:#2d2d2d;}</style>
</defs>
<title/>
<g id="rhino">
<path class="cls-1" d="M53,43.22a9.42,9.42,0,0,1-7.64,9.24L32,57,18.64,52.46A9.42,9.42,0,0,1,11,43.22,9.47,9.47,0,0,1,12,39l1-2a38.07,38.07,0,0,0,4-17h0a8.77,8.77,0,0,1,.08-1.15,8,8,0,0,1,5.86-6.58A7.81,7.81,0,0,1,25,12H39a7.81,7.81,0,0,1,2.06.27,8,8,0,0,1,5.86,6.58A8.77,8.77,0,0,1,47,20h0a38.07,38.07,0,0,0,4,17l1,2A9.47,9.47,0,0,1,53,43.22Z"/>
<path class="cls-2" d="M32,47h0a5.08,5.08,0,0,1-5-5.92L30.84,31A1.17,1.17,0,0,1,32,30h0a1.17,1.17,0,0,1,1.16,1L37,41.08A5.08,5.08,0,0,1,32,47Z"/>
<path class="cls-3" d="M22.94,12.27a8,8,0,0,0-5.86,6.58A12,12,0,0,1,7,7h6A12,12,0,0,1,22.94,12.27Z"/>
<path class="cls-3" d="M57,7A12,12,0,0,1,46.92,18.85a8,8,0,0,0-5.86-6.58A12,12,0,0,1,51,7Z"/>
<path class="cls-3" d="M28,52a1,1,0,0,1-1-1V50a1,1,0,0,1,2,0v1A1,1,0,0,1,28,52Z"/>
<path class="cls-3" d="M36,52a1,1,0,0,1-1-1V50a1,1,0,0,1,2,0v1A1,1,0,0,1,36,52Z"/>
<circle class="cls-4" cx="40.5" cy="29.5" r="1.5"/>
<circle class="cls-4" cx="23.5" cy="29.5" r="1.5"/>
</g>
</svg>